<svg width="28" height="20" viewBox="0 0 28 20" fill="none" xmlns="http://www.w3.org/2000/svg">
<path d="M2 0H25.4286C26.5326 0 27.4286 0.896 27.4286 2V18C27.4286 18.5304 27.2179 19.0391 26.8428 19.4142C26.4677 19.7893 25.959 20 25.4286 20H2C1.46957 20 0.960859 19.7893 0.585786 19.4142C0.210714 19.0391 0 18.5304 0 18L0 2C0 0.896 0.896 0 2 0ZM1.71429 5.04229V18C1.71429 18.1577 1.84229 18.2857 2 18.2857H25.4286C25.5043 18.2857 25.577 18.2556 25.6306 18.202C25.6842 18.1484 25.7143 18.0758 25.7143 18V5.04229L14.8343 12.3943C14.1577 12.8514 13.2709 12.8514 12.5943 12.3943L1.71429 5.04229ZM1.71429 2V2.97371L13.5543 10.9737C13.6015 11.0057 13.6573 11.0227 13.7143 11.0227C13.7713 11.0227 13.827 11.0057 13.8743 10.9737L25.7143 2.97371V2C25.7143 1.92422 25.6842 1.85155 25.6306 1.79797C25.577 1.74439 25.5043 1.71429 25.4286 1.71429H2C1.92422 1.71429 1.85155 1.74439 1.79797 1.79797C1.74439 1.85155 1.71429 1.92422 1.71429 2Z" fill="#CCCCCC"/>
</svg>
